# xmcd CD database file
#
# Track frame offsets:
#	150
#	13664
#	27241
#	40058
#	53277
#	65335
#	78472
#	90843
#	103242
#	115289
#	128534
#	143281
#	157857
#	171326
#	185362
#	199371
#	212779
#	226346
#	240798
#	253134
#	265323
#	279844
#	294252
#
# Disc length: 4077 seconds
#
# Revision: 0
# Processed by: cddbd v1.5.2PL0 Copyright (c) Steve Scherf et al.
# Submitted via: CDex 1.51
#
DISCID=280feb17
DTITLE=Red Nichols - The Complete Brunswick Recordings - Volume 3
DYEAR=1900
DGENRE=Jazz
TTITLE0=Margie
TTITLE1=Imagination
TTITLE2=Original Dixieland One Step
TTITLE3=Get Out And Get Under The Moon
TTITLE4=That's My Weakness Now
TTITLE5=My Ohio Home
TTITLE6=My Pet
TTITLE7=Chlo-e
TTITLE8=Ready For The River
TTITLE9=Sweet Sue - Just You
TTITLE10=She's A Great Great Girl
TTITLE11=Because My Baby Don't Mean "Maybe" Now
TTITLE12=Oh Baby
TTITLE13=A Pretty Girl Is Like A Melody 1
TTITLE14=A Pretty Girl Is Like A Melody 2
TTITLE15=I Never Knew
TTITLE16=Who's Sorry Now?
TTITLE17=Chinatown, My Chinatown
TTITLE18=Alice Blue Gown 1
TTITLE19=Alice Blue Gown 2
TTITLE20=Allah's Holiday 1
TTITLE21=Allah's Holiday 2
TTITLE22=Roses Of Picardy
EXTD=
EXTT0=
EXTT1=
EXTT2=
EXTT3=
EXTT4=
EXTT5=
EXTT6=
EXTT7=
EXTT8=
EXTT9=
EXTT10=
EXTT11=
EXTT12=
EXTT13=
EXTT14=
EXTT15=
EXTT16=
EXTT17=
EXTT18=
EXTT19=
EXTT20=
EXTT21=
EXTT22=
PLAYORDER=
